RBDS025runT25_grf
version=1
nRows=24
nColumns=19
inDegrees=no
endheader
time	ground_force_r_vx	ground_force_r_vy	ground_force_r_vz	ground_force_r_px	ground_force_r_py	ground_force_r_pz	ground_force_r_mx	ground_force_r_my	ground_force_r_mz	ground_force_l_vx	ground_force_l_vy	ground_force_l_vz	ground_force_l_px	ground_force_l_py	ground_force_l_pz	ground_force_l_mx	ground_force_l_my	ground_force_l_mz
     22.49800000	      0.00000000	      0.00000000	      0.00000000	      0.00000000	      0.00000000	      0.00000000	      0.00000000	      0.00000000	      0.00000000	    -54.78117072	    886.13301496	      9.01700688	      2.20671786	      0.00000000	      0.92359022	      0.00000000	      5.84205152	      0.00000000
     22.49900000	      0.00000000	      0.00000000	      0.00000000	      0.00000000	      0.00000000	      0.00000000	      0.00000000	      0.00000000	      0.00000000	    -57.80221225	    897.89361001	     10.01623180	      2.20649591	      0.00000000	      0.92343649	      0.00000000	      6.01594514	      0.00000000
     22.50000000	      0.00000000	      0.00000000	      0.00000000	      0.00000000	      0.00000000	      0.00000000	      0.00000000	      0.00000000	      0.00000000	    -60.82325378	    909.65420505	     11.01545672	      2.20627396	      0.00000000	      0.92328275	      0.00000000	      6.18983877	      0.00000000
     22.50100000	      0.00000000	      0.00000000	      0.00000000	      0.00000000	      0.00000000	      0.00000000	      0.00000000	      0.00000000	      0.00000000	    -63.93746696	    920.61033015	     12.09636040	      2.20594688	      0.00000000	      0.92310636	      0.00000000	      6.35375480	      0.00000000
     22.50200000	      0.00000000	      0.00000000	      0.00000000	      0.00000000	      0.00000000	      0.00000000	      0.00000000	      0.00000000	      0.00000000	    -67.05168015	    931.56645524	     13.17726409	      2.20561980	      0.00000000	      0.92292997	      0.00000000	      6.51767083	      0.00000000
     22.50300000	      0.00000000	      0.00000000	      0.00000000	      0.00000000	      0.00000000	      0.00000000	      0.00000000	      0.00000000	      0.00000000	    -70.16589334	    942.52258033	     14.25816778	      2.20529272	      0.00000000	      0.92275357	      0.00000000	      6.68158686	      0.00000000
     22.50400000	      0.00000000	      0.00000000	      0.00000000	      0.00000000	      0.00000000	      0.00000000	      0.00000000	      0.00000000	      0.00000000	    -73.28189533	    953.05653150	     15.37534555	      2.20488984	      0.00000000	      0.92256620	      0.00000000	      6.83887815	      0.00000000
     22.50500000	      0.00000000	      0.00000000	      0.00000000	      0.00000000	      0.00000000	      0.00000000	      0.00000000	      0.00000000	      0.00000000	    -76.39879172	    963.37939570	     16.51066038	      2.20444906	      0.00000000	      0.92237333	      0.00000000	      6.99285706	      0.00000000
     22.50600000	      0.00000000	      0.00000000	      0.00000000	      0.00000000	      0.00000000	      0.00000000	      0.00000000	      0.00000000	      0.00000000	    -79.51568810	    973.70225991	     17.64597520	      2.20400827	      0.00000000	      0.92218046	     -0.00000000	      7.14683597	      0.00000000
     22.50700000	      0.00000000	      0.00000000	      0.00000000	      0.00000000	      0.00000000	      0.00000000	      0.00000000	      0.00000000	      0.00000000	    -82.60316041	    983.86925695	     18.78966620	      2.20352724	      0.00000000	      0.92198422	     -0.00000000	      7.29749182	      0.00000000
     22.50800000	      0.00000000	      0.00000000	      0.00000000	      0.00000000	      0.00000000	      0.00000000	      0.00000000	      0.00000000	      0.00000000	    -85.63178454	    993.72451969	     19.95010958	      2.20296571	      0.00000000	      0.92178122	     -0.00000000	      7.44150155	      0.00000000
     22.50900000	      0.00000000	      0.00000000	      0.00000000	      0.00000000	      0.00000000	      0.00000000	      0.00000000	      0.00000000	      0.00000000	    -88.66040868	   1003.57978243	     21.11055295	      2.20240418	      0.00000000	      0.92157823	     -0.00000000	      7.58551129	      0.00000000
     22.51000000	      0.00000000	      0.00000000	      0.00000000	      0.00000000	      0.00000000	      0.00000000	      0.00000000	      0.00000000	      0.00000000	    -91.68903282	   1013.43504517	     22.27099632	      2.20184265	      0.00000000	      0.92137523	     -0.00000000	      7.72952102	      0.00000000
     22.51100000	      0.00000000	      0.00000000	      0.00000000	      0.00000000	      0.00000000	      0.00000000	      0.00000000	      0.00000000	      0.00000000	    -94.54166862	   1022.97380789	     23.42659265	      2.20115510	      0.00000000	      0.92116835	     -0.00000000	      7.86345986	      0.00000000
     22.51200000	      0.00000000	      0.00000000	      0.00000000	      0.00000000	      0.00000000	      0.00000000	      0.00000000	      0.00000000	      0.00000000	    -97.39430442	   1032.51257061	     24.58218897	      2.20046754	      0.00000000	      0.92096146	     -0.00000000	      7.99739869	      0.00000000
     22.51300000	      0.00000000	      0.00000000	      0.00000000	      0.00000000	      0.00000000	      0.00000000	      0.00000000	      0.00000000	      0.00000000	   -100.24694023	   1042.05133333	     25.73778530	      2.19977999	      0.00000000	      0.92075458	     -0.00000000	      8.13133753	      0.00000000
     22.51400000	      0.00000000	      0.00000000	      0.00000000	      0.00000000	      0.00000000	      0.00000000	      0.00000000	      0.00000000	      0.00000000	   -102.92815733	   1051.46510552	     26.87061158	      2.19900620	      0.00000000	      0.92054903	     -0.00000000	      8.25846287	      0.00000000
     22.51500000	      0.00000000	      0.00000000	      0.00000000	      0.00000000	      0.00000000	      0.00000000	      0.00000000	      0.00000000	      0.00000000	   -105.52366507	   1060.81638245	     27.99205283	      2.19818929	      0.00000000	      0.92034416	     -0.00000000	      8.38218146	      0.00000000
     22.51600000	      0.00000000	      0.00000000	      0.00000000	      0.00000000	      0.00000000	      0.00000000	      0.00000000	      0.00000000	      0.00000000	   -108.11917281	   1070.16765938	     29.11349409	      2.19737238	      0.00000000	      0.92013928	     -0.00000000	      8.50590006	      0.00000000
     22.51700000	      0.00000000	      0.00000000	      0.00000000	      0.00000000	      0.00000000	      0.00000000	      0.00000000	      0.00000000	      0.00000000	   -110.60505772	   1079.49017059	     30.21443560	      2.19651193	      0.00000000	      0.91993685	     -0.00000000	      8.62615842	      0.00000000
     22.51800000	      0.00000000	      0.00000000	      0.00000000	      0.00000000	      0.00000000	      0.00000000	      0.00000000	      0.00000000	      0.00000000	   -112.87169693	   1088.75515038	     31.27437761	      2.19556441	      0.00000000	      0.91973932	     -0.00000000	      8.73949633	      0.00000000
     22.51900000	      0.00000000	      0.00000000	      0.00000000	      0.00000000	      0.00000000	      0.00000000	      0.00000000	      0.00000000	      0.00000000	   -115.13833615	   1098.02013016	     32.33431963	      2.19461688	      0.00000000	      0.91954179	     -0.00000000	      8.85283425	      0.00000000
     22.52000000	      0.00000000	      0.00000000	      0.00000000	      0.00000000	      0.00000000	      0.00000000	      0.00000000	      0.00000000	      0.00000000	   -117.40497537	   1107.28510995	     33.39426165	      2.19366935	      0.00000000	      0.91934426	     -0.00000000	      8.96617216	      0.00000000
     22.52100000	      0.00000000	      0.00000000	      0.00000000	      0.00000000	      0.00000000	      0.00000000	      0.00000000	      0.00000000	      0.00000000	   -119.28261054	   1116.53338014	     34.36846108	      2.19259203	      0.00000000	      0.91915872	     -0.00000000	      9.06900245	      0.00000000
